<?xml version="1.0" standalone="no"?>
<!DOCTYPE svg PUBLIC "-//W3C//DTD SVG 20010904//EN"
 "http://www.w3.org/TR/2001/REC-SVG-20010904/DTD/svg10.dtd">
<svg version="1.0" xmlns="http://www.w3.org/2000/svg"
 width="181.000000pt" height="181.000000pt" viewBox="0 0 181.000000 181.000000"
 preserveAspectRatio="xMidYMid meet">
<metadata>
Created by potrace 1.11, written by Peter Selinger 2001-2013
</metadata>
<g transform="translate(0.000000,181.000000) scale(0.100000,-0.100000)"
fill="#000000" stroke="none">
<path d="M912 1704 c-30 -21 -28 -57 4 -74 47 -26 92 32 54 70 -24 24 -29 24
-58 4z"/>
<path d="M706 1663 c-26 -26 -28 -33 -16 -100 0 -2 12 -10 26 -19 42 -28 81
-25 109 8 72 86 -40 190 -119 111z"/>
<path d="M915 1538 c-92 -72 -41 -217 73 -209 87 5 137 94 97 171 -30 59 -119
79 -170 38z"/>
<path d="M795 1306 c-136 -38 -217 -147 -217 -291 0 -40 3 -79 7 -85 4 -7 3
-15 -3 -19 -6 -4 5 -59 33 -156 74 -253 176 -490 247 -569 43 -49 56 -45 105
29 l32 48 -42 28 c-48 32 -96 101 -120 173 -30 88 -31 86 103 129 136 43 194
66 187 73 -3 3 -31 8 -64 10 -32 2 -76 7 -98 9 -22 3 -74 8 -115 11 -41 3 -76
7 -77 8 -2 2 86 26 194 54 108 29 198 53 199 55 1 1 5 23 9 50 l7 47 -221 0
c-191 0 -222 2 -228 15 -3 9 -3 18 -1 20 3 3 105 5 226 6 239 1 222 -3 226 49
7 76 -37 202 -86 247 -62 59 -206 86 -303 59z"/>
</g>
</svg>
